<svg width="545" height="566" xmlns="http://www.w3.org/2000/svg" xmlns:xlink="http://www.w3.org/1999/xlink"><defs><path d="M229.5 437C340.233 437 430 347.233 430 236.5S340.233 36 229.5 36 29 125.767 29 236.5 118.767 437 229.5 437Z" id="a"/></defs><g fill="none" fill-rule="evenodd"><path d="M203.686 61.293c17.438-8.697 32.9-29.44 59.135-33.55 26.235-4.11 46.53 9.472 64.363 23.664 17.834 14.191 22.637 9.886 43.579 9.886s31.238 0 50.135 10.752c18.898 10.752 32.192 55.795 32.192 55.795s7.48 23.203 41.14 43.668 28.908 70.98 14.454 94.012c-14.455 23.032 2.397 42.508 6.067 50.88 3.67 8.373 16.064 49.679-22.798 80.175-38.863 30.497-34.735 27.55-39.753 45.88-5.017 18.33-23.259 60.96-65.937 60.96s-48.245 2.091-63.068 13.872c-14.823 11.78-48.1 36.564-86.005 10.039-37.905-26.525-41.104-25.288-71.973-25.288-30.87 0-61.772-16.755-70.042-45.169-8.27-28.414-7.786-34.12-44.542-64.694-36.756-30.575-23.215-80.21-15.824-92.04 7.39-11.833 3.798-29.902-6.438-56.695s4.774-61.384 39.497-82.946c27.021-16.78 24.447-41.168 27.021-50.05 2.575-8.88 11.681-35.477 48.026-43.755 36.345-8.279 43.332 3.301 60.77-5.396Zm6.817 21.987c15.71-7.835 29.64-26.522 53.273-30.224 23.633-3.703 41.916 8.533 57.982 21.317 16.065 12.785 20.392 8.907 39.258 8.907 18.866 0 28.141 0 45.165 9.686s29 50.264 29 50.264 6.738 20.902 37.061 39.338 26.043 63.943 13.021 84.692c-13.02 20.749 2.16 38.293 5.466 45.836 3.307 7.542 14.472 44.753-20.538 72.226-35.01 27.474-31.29 24.82-35.811 41.332-4.52 16.513-20.953 54.915-59.4 54.915s-43.463 1.885-56.816 12.497c-13.354 10.613-43.332 32.94-77.479 9.044-34.147-23.895-37.028-22.78-64.837-22.78-27.81 0-55.649-15.095-63.098-40.692-7.45-25.596-7.014-30.736-40.126-58.28-33.112-27.544-20.913-72.257-14.256-82.916 6.658-10.659 3.422-26.937-5.8-51.073-9.22-24.137 4.301-55.299 35.582-74.724 24.343-15.116 22.023-37.086 24.343-45.086 2.319-8.001 10.523-31.96 43.264-39.419 32.741-7.457 39.036 2.975 54.746-4.86Z" fill="#6894C3"/><path d="M196.703 38.773c19.21-9.58 36.242-32.43 65.14-36.957 28.9-4.527 51.255 10.434 70.9 26.067 19.644 15.633 24.935 10.89 48.003 10.89s34.41 0 55.227 11.844c20.816 11.844 35.46 61.461 35.46 61.461s8.239 25.559 45.317 48.102c37.078 22.543 31.844 78.187 15.922 103.558-15.922 25.371 2.64 46.824 6.683 56.047 4.043 9.223 17.696 54.723-25.113 88.317-42.808 33.593-38.262 30.347-43.789 50.539-5.527 20.191-25.621 67.148-72.633 67.148-47.011 0-53.144 2.305-69.472 15.281-16.328 12.977-52.985 40.278-94.739 11.059-41.754-29.219-45.277-27.856-79.28-27.856-34.005 0-68.046-18.457-77.155-49.755-9.11-31.3-8.576-37.584-49.065-71.264-40.488-33.68-25.572-88.354-17.431-101.387 8.14-13.033 4.183-32.937-7.092-62.451-11.275-29.514 5.26-67.617 43.508-91.37 29.765-18.483 26.93-45.347 29.765-55.13 2.836-9.783 12.868-39.08 52.903-48.2 40.035-9.118 47.732 3.638 66.941-5.943Zm7.51 24.22c17.304-8.63 32.649-29.215 58.682-33.294 26.034-4.078 46.173 9.4 63.87 23.483 17.697 14.083 22.463 9.81 43.245 9.81 20.78 0 30.998 0 49.751 10.67 18.753 10.67 31.945 55.368 31.945 55.368s7.422 23.025 40.824 43.333 28.687 70.436 14.343 93.292c-14.343 22.855 2.38 42.182 6.021 50.49 3.643 8.308 15.941 49.297-22.623 79.56-38.565 30.264-34.469 27.34-39.448 45.53-4.98 18.189-23.081 60.49-65.432 60.49s-47.876 2.077-62.585 13.767c-14.71 11.69-47.732 36.284-85.346 9.962-37.615-26.322-40.789-25.094-71.421-25.094-30.633 0-61.3-16.627-69.506-44.823-8.206-28.196-7.726-33.858-44.2-64.198-36.474-30.341-23.037-79.595-15.703-91.336 7.333-11.74 3.768-29.672-6.39-56.26-10.157-26.587 4.739-60.913 39.195-82.31 26.815-16.652 24.26-40.852 26.815-49.665 2.555-8.814 11.592-35.206 47.658-43.421 36.066-8.215 43 3.276 60.304-5.354Z" fill="#E9D195"/><g transform="translate(44 48)"><path d="M164.329 31.53C180.336 23.546 194.53 4.505 218.61.733c24.082-3.773 42.711 8.694 59.081 21.721 16.37 13.027 20.78 9.076 40.002 9.076 19.223 0 28.675 0 46.021 9.87 17.347 9.869 29.55 51.215 29.55 51.215s6.865 21.299 37.763 40.084c30.898 18.785 26.536 65.155 13.268 86.297-13.268 21.142 2.2 39.019 5.57 46.704 3.369 7.686 14.745 45.601-20.928 73.596-35.673 27.994-31.884 25.289-36.49 42.114-4.606 16.826-21.35 55.956-60.526 55.956-39.175 0-44.286 1.92-57.892 12.734-13.606 10.814-44.153 33.564-78.947 9.215-34.794-24.348-37.73-23.212-66.066-23.212-28.336 0-56.702-15.38-64.293-41.462-7.591-26.082-7.147-31.32-40.887-59.385-33.739-28.066-21.31-73.626-14.526-84.487 6.784-10.86 3.487-27.447-5.91-52.041-9.395-24.594 4.383-56.346 36.256-76.14 24.805-15.403 22.441-37.788 24.805-45.94 2.363-8.153 10.722-32.567 44.084-40.166 33.362-7.599 39.776 3.03 55.783-4.952Z" fill="#3A4C64"/><path d="M228.5 459C351.383 459 451 359.383 451 236.5S351.383 14 228.5 14 6 113.617 6 236.5 105.617 459 228.5 459Zm.5-14c114.875 0 208-93.125 208-208S343.875 29 229 29 21 122.125 21 237s93.125 208 208 208Z" fill="#E9D195"/><mask id="b" fill="#fff"><use xlink:href="#a"/></mask><g mask="url(#b)"><g opacity=".737" fill="#6894C3"><path d="M9.17 295h440.377v6H9.17zM9.17 307h440.377v6H9.17zM9.17 319h440.377v6H9.17zM9.17 332h440.377v6H9.17zM9.17 345h440.377v6H9.17zM9.17 358h440.377v6H9.17zM9.17 371h440.377v6H9.17zM9.17 383h440.377v6H9.17zM9.17 395h440.377v6H9.17zM9.17 408h440.377v6H9.17zM9.17 420h440.377v6H9.17zM9.17 432h440.377v6H9.17zM9.17 445h440.377v6H9.17zM9.17 458h440.377v6H9.17zM9.17 470h440.377v6H9.17zM9.17 36h440.377v6H9.17zM9.17 48h440.377v6H9.17zM9.17 60h440.377v6H9.17zM9.17 73h440.377v6H9.17zM9.17 85h440.377v6H9.17zM9.17 97h440.377v6H9.17zM9.17 110h440.377v6H9.17zM9.17 122h440.377v6H9.17zM9.17 134h440.377v6H9.17zM9.17 147h440.377v6H9.17zM9.17 159h440.377v6H9.17zM9.17 171h440.377v6H9.17z"/></g><path fill="#B53704" d="M21 183h416v107H21z"/></g><g mask="url(#b)"><path d="M165.225 237.056c20.937-33.478 49.838-40.539 55.632-41.439 0 1.572-.183 3.047-14.198 12.815-23.963 22.143-28.604 45.12-25.151 65.073 39.503-18.078 36.831-50.328 39.094-57.937-2.362-5.997-7.364-4.095-7.364-4.095s2.834-10.8 18.792-9.878c9.065 7.992 6.884 27.264-2.466 40.95-9.35 13.685-20.272 23.422-24.364 26.335 10.257 2.084 29.326-22.811 34.288-29.657 6.484-11.245 22.514-28.015 32.384-32.722 9.87-4.707 20.411-8.645 35.247-4.115 6.264-.851 9.63-1.771 17.582-3.093-7.227 17.204-23.19 38.749-36.079 62.893-2.455 4.302-5.821 11.826-.281 6.694 13.442-9.289 13.063-7.594 26.68-21.878 34.833-47.709 45.882-49.597 73.954-51.385 0 2.889 2.003 9.149.48 15.328 2.152.071 5.515.172 12.56 1.813-8.785 29.255-29.791 40.51-31.744 56.122 3.883-.588 5.765-5.342 11.796-8.347 1.632 8.347-10.643 21.966-31.922 23.187-6.501-1.885-2.909-8.672-2.279-15.958-11.709 4.268-21.996 16.252-28.758 14.737-6.527-4.001-6.191-11.07-7.455-19.018-6.77 0-23.312 13.632-31.424 21.322-18.497 23.622-27.917 43.2-33.78 53.017-5.862 9.816-13.281 25.434-31.093 35.508-20.736 10.64-25.653-2.74-25.653-7.486 0-4.747-.118-21.801 31.826-47.405 34.349-26.882 40.46-41.855 43.086-48.964-4.373 2.719-18.746 15.74-30.614 14.247-3.1-6.675-5.703-13.068-1.353-24.396-8.906 9.328-21.281 19.157-29.617 20.22-8.335 1.065-12.228-1.673-12.228-1.673s-11.006 7.773-28.072 4.628c-4.941-8.994-6.851-26.323 2.494-45.443Zm86.856 31.79c3.826-5.774 34.21-26.33 44.24-56.83.507-3.258-3.209-3.25-3.762-2.984-29.825 14.366-38.353 46.784-40.478 59.814Zm90.59-8.718c5.698 0 25.495-18.176 35.525-48.677.506-3.257-2.135-3.843-2.637-3.419-26.005 21.965-34.233 44.88-32.887 52.096Zm-102.313 54.594c-3.676 10.481-22.87 34.74-29.744 41.508-3.906 2.158-5.005-.032-3.974-2.529 1.031-2.497 21.05-35.12 33.718-38.98ZM54.12 231.856c-6.513-55.473 43.419-104.697 81.937-103.245 22.345-1.968 33.735 15.112 22.345 38.089-5.063 10.463-13.03 18.343-16.585 23.8-7.67 19.952-21.609 43.79-29.425 55.653-7.189 14.457-8.595 19.893-10.049 24.94 4.883-2.84 20.172-10.504 38.194-36.114 26.195-43.551 26.333-48.409 51.017-96.272 11.827-1.973 27.162-4.57 27.162-4.57s-33.055 56.506-57.857 102.176-73.05 134.034-73.05 134.034H70.348s44.057-86.82 46.688-92.794c-6.78 1.343-16.813 12.37-28.416 12.186-10.533-4.102-7.085-20.513-.81-40.118 6.276-19.605 51.244-82.921 51.244-101.299-9.177-13.293-33.495 0-33.495 0s-34.463 23.047-33.33 70.184c12.85-2.673 20.293-9.96 28.305-20.35 13.123-21.287 21.34-38.629 27.487-42.062-2.45 20.469-36.396 92.367-73.9 75.762Z" fill="#293D4E"/><path d="M163.225 233.056c20.937-33.478 49.838-40.539 55.632-41.439 0 1.572-.183 3.047-14.198 12.815-23.963 22.143-28.604 45.12-25.151 65.073 39.503-18.078 36.831-50.328 39.094-57.937-2.362-5.997-7.364-4.095-7.364-4.095s2.834-10.8 18.792-9.878c9.065 7.992 6.884 27.264-2.466 40.95-9.35 13.685-20.272 23.422-24.364 26.335 10.257 2.084 29.326-22.811 34.288-29.657 6.484-11.245 22.514-28.015 32.384-32.722 9.87-4.707 20.411-8.645 35.247-4.115 6.264-.851 9.63-1.771 17.582-3.093-7.227 17.204-23.19 38.749-36.079 62.893-2.455 4.302-5.821 11.826-.281 6.694 13.442-9.289 13.063-7.594 26.68-21.878 34.833-47.709 45.882-49.597 73.954-51.385 0 2.889 2.003 9.149.48 15.328 2.152.071 5.515.172 12.56 1.813-8.785 29.255-29.791 40.51-31.744 56.122 3.883-.588 5.765-5.342 11.796-8.347 1.632 8.347-10.643 21.966-31.922 23.187-6.501-1.885-2.909-8.672-2.279-15.958-11.709 4.268-21.996 16.252-28.758 14.737-6.527-4.001-6.191-11.07-7.455-19.018-6.77 0-23.312 13.632-31.424 21.322-18.497 23.622-27.917 43.2-33.78 53.017-5.862 9.816-13.281 25.434-31.093 35.508-20.736 10.64-25.653-2.74-25.653-7.486 0-4.747-.118-21.801 31.826-47.405 34.349-26.882 40.46-41.855 43.086-48.964-4.373 2.719-18.746 15.74-30.614 14.247-3.1-6.675-5.703-13.068-1.353-24.396-8.906 9.328-21.281 19.157-29.617 20.22-8.335 1.065-12.228-1.673-12.228-1.673s-11.006 7.773-28.072 4.628c-4.941-8.994-6.851-26.323 2.494-45.443Zm86.856 31.79c3.826-5.774 34.21-26.33 44.24-56.83.507-3.258-3.209-3.25-3.762-2.984-29.825 14.366-38.353 46.784-40.478 59.814Zm90.59-8.718c5.698 0 25.495-18.176 35.525-48.677.506-3.257-2.135-3.843-2.637-3.419-26.005 21.965-34.233 44.88-32.887 52.096Zm-102.313 54.594c-3.676 10.481-22.87 34.74-29.744 41.508-3.906 2.158-5.005-.032-3.974-2.529 1.031-2.497 21.05-35.12 33.718-38.98ZM52.12 227.856c-6.513-55.473 43.419-104.697 81.937-103.245 22.345-1.968 33.735 15.112 22.345 38.089-5.063 10.463-13.03 18.343-16.585 23.8-7.67 19.952-21.609 43.79-29.425 55.653-7.189 14.457-8.595 19.893-10.049 24.94 4.883-2.84 20.172-10.504 38.194-36.114 26.195-43.551 26.333-48.409 51.017-96.272 11.827-1.973 27.162-4.57 27.162-4.57s-33.055 56.506-57.857 102.176-73.05 134.034-73.05 134.034H68.348s44.057-86.82 46.688-92.794c-6.78 1.343-16.813 12.37-28.416 12.186-10.533-4.102-7.085-20.513-.81-40.118 6.276-19.605 51.244-82.921 51.244-101.299-9.177-13.293-33.495 0-33.495 0s-34.463 23.047-33.33 70.184c12.85-2.673 20.293-9.96 28.305-20.35 13.123-21.287 21.34-38.629 27.487-42.062-2.45 20.469-36.396 92.367-73.9 75.762Z" fill="#E9D195"/></g><g mask="url(#b)"><path d="M169.945 108.684c.383.399 1.08.735 2.095 1.008v2.079h-14.98v-2.08c1.11-.314 1.827-.63 2.152-.944.325-.315.555-.761.689-1.339.134-.577.2-1.759.2-3.543V91.234h-12.97v12.63c0 .736.018 1.418.057 2.048.038.63.114 1.144.23 1.543.114.4.281.735.501 1.008.22.273.522.51.904.709.383.2.852.373 1.407.52v2.079h-15.067v-2.08c.708-.21 1.268-.435 1.68-.677.41-.241.717-.577.917-1.007.201-.43.33-.977.388-1.638.057-.662.086-1.496.086-2.504V76.714c0-.987-.024-1.817-.072-2.489-.048-.672-.172-1.218-.373-1.638-.2-.42-.507-.76-.918-1.023-.412-.263-.98-.499-1.708-.709v-2.079h15.067v2.079c-1.014.315-1.708.661-2.081 1.04-.373.377-.636.876-.79 1.496-.152.619-.229 1.737-.229 3.354v10.52h12.972v-10.52c0-1.596-.063-2.703-.187-3.323-.124-.62-.373-1.123-.746-1.512-.373-.388-1.076-.74-2.11-1.055v-2.079h14.98v2.079c-.84.252-1.453.52-1.836.803a2.33 2.33 0 0 0-.818 1.087 5.71 5.71 0 0 0-.315 1.48c-.048.546-.072 1.386-.072 2.52v27.12c0 1.616.062 2.724.186 3.323.125.598.378 1.097.761 1.496Zm16.837-7.245c-.268.84-.488 1.654-.66 2.441a11.7 11.7 0 0 0-.259 2.504c0 2.058.995 3.16 2.985 3.308v2.079h-12.254v-2.08a3.409 3.409 0 0 0 1.865-.818c.536-.462 1.024-1.092 1.464-1.89.44-.798.909-1.942 1.406-3.433l11.967-34.994h7.662l9.47 35.277c.422 1.575.776 2.693 1.063 3.355.286.661.66 1.197 1.119 1.606.459.41 1.1.709 1.922.898v2.079h-15.84v-2.08c.994-.125 1.73-.43 2.209-.913.478-.483.717-1.165.717-2.047 0-.651-.066-1.376-.2-2.173a40.13 40.13 0 0 0-.66-3.024l-.775-3.087h-12.254l-.947 2.992Zm7.777-24.41-5.74 17.733h10.331l-4.591-17.733Zm38.915 31.198c.22.346.536.635.947.866.411.231 1.048.43 1.909.599v2.079h-15.44v-2.08c.708-.21 1.268-.435 1.679-.677.411-.241.717-.577.918-1.007.201-.43.33-.977.388-1.638.057-.662.086-1.496.086-2.504V76.714c0-.987-.024-1.817-.072-2.489-.048-.672-.172-1.218-.373-1.638-.2-.42-.507-.76-.918-1.023-.412-.263-.98-.499-1.708-.709v-2.079h16.674c4.84 0 8.465.95 10.876 2.85 2.41 1.901 3.616 4.825 3.616 8.773 0 2.793-.564 5.218-1.693 7.276-1.13 2.058-2.765 3.617-4.908 4.677-2.142 1.06-4.82 1.59-8.035 1.59-1.856 0-3.377-.041-4.563-.125v10.08c0 1.385.048 2.367.144 2.944.095.578.253 1.04.473 1.386Zm6.414-18.867c1.129-.599 1.966-1.549 2.511-2.85.545-1.303.818-3.056.818-5.26 0-2.185-.273-3.922-.818-5.214-.545-1.291-1.344-2.21-2.396-2.756-1.052-.546-2.401-.819-4.047-.819-1.339 0-2.372.021-3.099.063v17.734h2.468c1.913 0 3.434-.3 4.563-.898Zm31.66 18.867c.22.346.535.635.946.866.412.231 1.048.43 1.909.599v2.079h-15.44v-2.08c.708-.21 1.268-.435 1.679-.677.411-.241.717-.577.918-1.007.201-.43.33-.977.388-1.638.057-.662.086-1.496.086-2.504V76.714c0-.987-.024-1.817-.072-2.489-.048-.672-.172-1.218-.373-1.638-.2-.42-.507-.76-.918-1.023-.412-.263-.98-.499-1.708-.709v-2.079h16.674c4.84 0 8.465.95 10.876 2.85 2.41 1.901 3.616 4.825 3.616 8.773 0 2.793-.564 5.218-1.693 7.276s-2.765 3.617-4.907 4.677c-2.143 1.06-4.822 1.59-8.036 1.59-1.856 0-3.377-.041-4.563-.125v10.08c0 1.385.048 2.367.144 2.944.095.578.253 1.04.473 1.386Zm6.413-18.867c1.129-.599 1.966-1.549 2.511-2.85.545-1.303.818-3.056.818-5.26 0-2.185-.273-3.922-.818-5.214-.545-1.291-1.344-2.21-2.396-2.756-1.052-.546-2.401-.819-4.046-.819-1.34 0-2.373.021-3.1.063v17.734h2.468c1.913 0 3.434-.3 4.563-.898Zm38.274 17.04c.058.578.163 1.045.316 1.402s.34.645.56.866c.22.22.526.42.918.598.392.179.923.32 1.592.426v2.079h-15.84v-2.08c.784-.146 1.41-.335 1.879-.566a2.28 2.28 0 0 0 1.047-1.008c.23-.441.378-1.003.445-1.685.067-.683.1-1.538.1-2.567v-8.63l-7.776-18.017c-.67-1.533-1.196-2.667-1.579-3.402-.44-.861-.818-1.48-1.133-1.859-.316-.378-.608-.64-.876-.787-.267-.147-.64-.252-1.119-.315v-2.079h15.296v2.079c-1.473.21-2.21 1.008-2.21 2.394 0 .546.12 1.197.36 1.953.238.756.626 1.764 1.161 3.023l4.85 11.844 5.252-11.56c.517-1.155.875-2.116 1.076-2.882.201-.767.301-1.528.301-2.284 0-.756-.196-1.349-.588-1.78-.392-.43-.942-.666-1.65-.708v-2.079h11.508v2.079c-.517.126-.942.3-1.277.52-.335.22-.703.567-1.105 1.04-.402.472-.88 1.18-1.435 2.125-.555.945-1.196 2.174-1.923 3.685l-8.236 17.01v8.63c0 1.113.029 1.958.086 2.535Z" fill="#293D4E"/><path d="M166.945 106.684c.383.399 1.08.735 2.095 1.008v2.079h-14.98v-2.08c1.11-.314 1.827-.63 2.152-.944.325-.315.555-.761.689-1.339.134-.577.2-1.759.2-3.543V89.234h-12.97v12.63c0 .736.018 1.418.057 2.048.038.63.114 1.144.23 1.543.114.4.281.735.501 1.008.22.273.522.51.904.709.383.2.852.373 1.407.52v2.079h-15.067v-2.08c.708-.21 1.268-.435 1.68-.677.41-.241.717-.577.917-1.007.201-.43.33-.977.388-1.638.057-.662.086-1.496.086-2.504V74.714c0-.987-.024-1.817-.072-2.489-.048-.672-.172-1.218-.373-1.638-.2-.42-.507-.76-.918-1.023-.412-.263-.98-.499-1.708-.709v-2.079h15.067v2.079c-1.014.315-1.708.661-2.081 1.04-.373.377-.636.876-.79 1.496-.152.619-.229 1.737-.229 3.354v10.52h12.972v-10.52c0-1.596-.063-2.703-.187-3.323-.124-.62-.373-1.123-.746-1.512-.373-.388-1.076-.74-2.11-1.055v-2.079h14.98v2.079c-.84.252-1.453.52-1.836.803a2.33 2.33 0 0 0-.818 1.087 5.71 5.71 0 0 0-.315 1.48c-.048.546-.072 1.386-.072 2.52v27.12c0 1.616.062 2.724.186 3.323.125.598.378 1.097.761 1.496Zm16.837-7.245c-.268.84-.488 1.654-.66 2.441a11.7 11.7 0 0 0-.259 2.504c0 2.058.995 3.16 2.985 3.308v2.079h-12.254v-2.08a3.409 3.409 0 0 0 1.865-.818c.536-.462 1.024-1.092 1.464-1.89.44-.798.909-1.942 1.406-3.433l11.967-34.994h7.662l9.47 35.277c.422 1.575.776 2.693 1.063 3.355.286.661.66 1.197 1.119 1.606.459.41 1.1.709 1.922.898v2.079h-15.84v-2.08c.994-.125 1.73-.43 2.209-.913.478-.483.717-1.165.717-2.047 0-.651-.066-1.376-.2-2.173a40.13 40.13 0 0 0-.66-3.024l-.775-3.087h-12.254l-.947 2.992Zm7.777-24.41-5.74 17.733h10.331l-4.591-17.733Zm38.915 31.198c.22.346.536.635.947.866.411.231 1.048.43 1.909.599v2.079h-15.44v-2.08c.708-.21 1.268-.435 1.679-.677.411-.241.717-.577.918-1.007.201-.43.33-.977.388-1.638.057-.662.086-1.496.086-2.504V74.714c0-.987-.024-1.817-.072-2.489-.048-.672-.172-1.218-.373-1.638-.2-.42-.507-.76-.918-1.023-.412-.263-.98-.499-1.708-.709v-2.079h16.674c4.84 0 8.465.95 10.876 2.85 2.41 1.901 3.616 4.825 3.616 8.773 0 2.793-.564 5.218-1.693 7.276-1.13 2.058-2.765 3.617-4.908 4.677-2.142 1.06-4.82 1.59-8.035 1.59-1.856 0-3.377-.041-4.563-.125v10.08c0 1.385.048 2.367.144 2.944.095.578.253 1.04.473 1.386Zm6.414-18.867c1.129-.599 1.966-1.549 2.511-2.85.545-1.303.818-3.056.818-5.26 0-2.185-.273-3.922-.818-5.214-.545-1.291-1.344-2.21-2.396-2.756-1.052-.546-2.401-.819-4.047-.819-1.339 0-2.372.021-3.099.063v17.734h2.468c1.913 0 3.434-.3 4.563-.898Zm31.66 18.867c.22.346.535.635.946.866.412.231 1.048.43 1.909.599v2.079h-15.44v-2.08c.708-.21 1.268-.435 1.679-.677.411-.241.717-.577.918-1.007.201-.43.33-.977.388-1.638.057-.662.086-1.496.086-2.504V74.714c0-.987-.024-1.817-.072-2.489-.048-.672-.172-1.218-.373-1.638-.2-.42-.507-.76-.918-1.023-.412-.263-.98-.499-1.708-.709v-2.079h16.674c4.84 0 8.465.95 10.876 2.85 2.41 1.901 3.616 4.825 3.616 8.773 0 2.793-.564 5.218-1.693 7.276s-2.765 3.617-4.907 4.677c-2.143 1.06-4.822 1.59-8.036 1.59-1.856 0-3.377-.041-4.563-.125v10.08c0 1.385.048 2.367.144 2.944.095.578.253 1.04.473 1.386Zm6.413-18.867c1.129-.599 1.966-1.549 2.511-2.85.545-1.303.818-3.056.818-5.26 0-2.185-.273-3.922-.818-5.214-.545-1.291-1.344-2.21-2.396-2.756-1.052-.546-2.401-.819-4.046-.819-1.34 0-2.373.021-3.1.063v17.734h2.468c1.913 0 3.434-.3 4.563-.898Zm38.274 17.04c.058.578.163 1.045.316 1.402s.34.645.56.866c.22.22.526.42.918.598.392.179.923.32 1.592.426v2.079h-15.84v-2.08c.784-.146 1.41-.335 1.879-.566a2.28 2.28 0 0 0 1.047-1.008c.23-.441.378-1.003.445-1.685.067-.683.1-1.538.1-2.567v-8.63l-7.776-18.017c-.67-1.533-1.196-2.667-1.579-3.402-.44-.861-.818-1.48-1.133-1.859-.316-.378-.608-.64-.876-.787-.267-.147-.64-.252-1.119-.315v-2.079h15.296v2.079c-1.473.21-2.21 1.008-2.21 2.394 0 .546.12 1.197.36 1.953.238.756.626 1.764 1.161 3.023l4.85 11.844 5.252-11.56c.517-1.155.875-2.116 1.076-2.882.201-.767.301-1.528.301-2.284 0-.756-.196-1.349-.588-1.78-.392-.43-.942-.666-1.65-.708v-2.079h11.508v2.079c-.517.126-.942.3-1.277.52-.335.22-.703.567-1.105 1.04-.402.472-.88 1.18-1.435 2.125-.555.945-1.196 2.174-1.923 3.685l-8.236 17.01v8.63c0 1.113.029 1.958.086 2.535Z" fill="#E9D195"/></g></g><g transform="translate(230 434)"><circle stroke="#3A4C64" stroke-width="7" fill="#E9D195" cx="42.5" cy="42.5" r="42.5"/><path d="M27.425 69.579c-6.401-2.288-11.05-7.98-12.89-15.786-.835-3.543-1.071-9.397-.379-9.397.23 0 .845 1.607 1.366 3.57 1.14 4.296 3.084 8.336 4.962 10.31 3.12 3.28 10.846 4.565 15.297 2.544 3.468-1.575 4.875-5.317 3.367-8.958-1.166-2.813-3.81-3.754-8.734-3.107 0 0-3.018-3.249-3.98-9.017l3.094.28c3.726.338 6.539-.486 7.999-2.342 1.372-1.744 1.342-2.418-.185-4.193-2.203-2.561-6.158-1.913-14.167 2.324l-4.042-6.775 1.695-1.292c4.245-3.238 11.617-4.857 15.813-3.472 3.821 1.26 6.626 6.265 5.877 10.485-.507 2.853-2.795 6.85-4.562 7.968l-1.524.965 2.105.95c3.578 1.613 5.762.38 8.372-4.727 3.61-7.068 5.953-8.897 11.4-8.905 2.536-.004 3.438.262 5.288 1.558 4.616 3.235 7.13 9.935 6.578 17.53-.7 9.622-5.257 15.457-12.07 15.457-3.74 0-6.15-1.311-8.069-4.39-1.685-2.705-2.445-8.06-1.477-10.417.464-1.13.548-1.169.579-.264.056 1.662 1.947 4.364 3.683 5.262 4.26 2.204 10.377-.565 12.797-5.791 1.837-3.968.851-11.622-1.67-12.972-.528-.282-1.832-.513-2.898-.513-2.265 0-4.044 1.629-6.539 5.986-.862 1.507-2.314 3.453-3.225 4.326-1.481 1.418-2.01 1.586-4.972 1.586H43l1.071 2.38c1.534 3.406 1.461 8.94-.161 12.31-1.434 2.977-4.748 5.99-7.398 6.727-2.58.717-6.78.624-9.087-.2ZM39.907 23.54c-1.467-2.502-2.369-7.172-1.386-7.172 1.154 2.504 3.521 4.739 6.055 6.298 4.552 2.203 9.167 1.314 14.209-2.738 1.11-.892 2.093-1.523 2.184-1.401C62.2 20.438 64.33 22 65.034 24.22c0 .937-4.033 3.633-7.215 4.823-7.886 2.272-13.254 1.373-17.912-5.502Zm3.974-5.783 5.135-5.693 5.706 5.282c-1.952 1.607-3.36 4.102-5.59 5.367-1.762-1.298-4.392-2.83-5.251-4.956Z" fill="#B53704"/></g></g></svg>