<?xml version="1.0" standalone="no"?>
<!DOCTYPE svg PUBLIC "-//W3C//DTD SVG 20010904//EN"
 "http://www.w3.org/TR/2001/REC-SVG-20010904/DTD/svg10.dtd">
<svg version="1.0" xmlns="http://www.w3.org/2000/svg"
 width="566.000000pt" height="566.000000pt" viewBox="0 0 566.000000 566.000000"
 preserveAspectRatio="xMidYMid meet">
<metadata>
Created by potrace 1.14, written by Peter Selinger 2001-2017
</metadata>
<g transform="translate(0.000000,566.000000) scale(0.100000,-0.100000)"
fill="#000000" stroke="none">
<path d="M2739 5645 c-2 -2 -21 -6 -42 -9 -21 -3 -48 -11 -60 -18 -12 -6 -23
-11 -24 -10 -17 10 -236 -115 -292 -166 -50 -45 -186 -138 -249 -169 -72 -36
-76 -37 -175 -34 -301 8 -342 6 -471 -24 -116 -27 -156 -38 -156 -46 0 -4 -12
-10 -27 -14 -45 -11 -162 -95 -218 -158 -46 -50 -135 -202 -141 -240 -20 -125
-48 -257 -64 -297 -46 -117 -119 -201 -255 -292 -99 -66 -112 -77 -195 -158
-131 -129 -228 -299 -244 -430 -2 -14 -7 -33 -11 -42 -13 -31 4 -212 24 -252
5 -12 19 -50 31 -86 12 -36 25 -74 30 -85 27 -63 53 -198 54 -280 1 -109 -5
-140 -36 -191 -114 -187 -126 -539 -25 -754 11 -25 21 -48 21 -52 1 -4 8 -15
16 -25 8 -10 23 -32 34 -48 21 -34 153 -164 212 -210 72 -56 232 -221 268
-278 50 -77 75 -145 133 -347 27 -94 83 -189 157 -267 39 -40 74 -73 79 -73 4
0 17 -8 28 -19 23 -21 171 -95 214 -106 17 -5 35 -9 40 -11 6 -2 20 -5 33 -8
13 -3 31 -7 40 -10 38 -11 131 -18 290 -21 92 -1 190 -8 217 -15 84 -20 212
-88 370 -193 149 -100 253 -157 310 -172 17 -5 37 -10 45 -13 8 -3 63 -6 121
-7 183 -5 337 54 534 205 114 88 161 117 220 138 93 31 147 37 475 46 155 5
166 7 244 32 90 30 178 87 257 166 59 59 149 181 149 202 0 8 3 16 8 18 7 3
62 112 62 123 0 4 6 21 14 38 15 33 42 122 50 167 10 57 42 108 105 170 37 36
76 72 86 80 70 53 111 85 115 90 3 3 34 28 70 55 36 27 92 77 125 110 59 59
135 163 135 184 0 6 4 11 8 11 9 0 55 137 68 200 10 50 12 199 3 240 -4 19
-10 48 -13 63 -10 54 -29 102 -88 215 -32 61 -56 112 -54 112 2 0 -2 19 -9 43
-25 83 0 225 55 307 65 98 111 270 114 431 5 202 -39 351 -142 479 -45 55 -46
57 -157 131 -148 100 -252 193 -320 284 -16 22 -33 42 -36 45 -17 13 -69 124
-98 209 -79 227 -180 411 -275 499 -65 60 -248 145 -312 145 -8 0 -14 3 -14 6
0 3 -19 7 -43 7 -69 3 -358 3 -407 1 -68 -3 -147 11 -193 35 -36 18 -102 62
-117 78 -8 9 -142 105 -190 136 -128 84 -274 130 -417 132 -50 0 -92 -1 -94
-3z"/>
</g>
</svg>
